<svg width="128" height="128" viewBox="0 0 128 128" fill="none" xmlns="http://www.w3.org/2000/svg">
<g clip-path="url(#clip0_47_243)">
<path d="M128 95.523C128 96.223 127.978 97.736 127.934 98.923C127.878 101.688 127.651 104.448 127.255 107.185C126.794 109.587 126.012 111.916 124.932 114.11C123.753 116.439 122.207 118.562 120.352 120.399C118.509 122.24 116.386 123.778 114.063 124.957C111.855 126.041 109.511 126.822 107.094 127.28C104.377 127.668 101.638 127.887 98.8941 127.937C97.7111 127.981 96.1941 128.003 95.4941 128.003H32.4771C31.7771 128.003 30.2641 127.981 29.0771 127.937C26.3117 127.881 23.5525 127.654 20.8151 127.258C18.4133 126.797 16.0842 126.015 13.8901 124.935C11.5612 123.756 9.43765 122.21 7.60107 120.355C5.75993 118.512 4.22161 116.389 3.04306 114.066C1.95943 111.858 1.17807 109.514 0.720062 107.097C0.332282 104.38 0.112881 101.641 0.0630798 98.897C0.0190798 97.714 -0.00292969 96.197 -0.00292969 95.497V32.477C-0.00292969 31.777 0.0190798 30.264 0.0630798 29.077C0.119251 26.3117 0.346001 23.5524 0.742065 20.815C1.20337 18.4132 1.98467 16.0841 3.06506 13.89C4.24382 11.5611 5.79035 9.43758 7.64508 7.60101C9.48821 5.75987 11.6107 4.22155 13.9341 3.043C16.1423 1.95937 18.4863 1.17801 20.9031 0.720001C23.6203 0.332242 26.3588 0.112826 29.1031 0.0630035C30.2861 0.0190035 31.8031 -0.00299072 32.5031 -0.00299072H95.5281C96.2281 -0.00299072 97.7411 0.0190035 98.9281 0.0630035C101.693 0.119193 104.453 0.345958 107.19 0.742004C109.592 1.20331 111.921 1.98461 114.115 3.065C116.444 4.24376 118.567 5.79027 120.404 7.645C122.245 9.48814 123.784 11.6107 124.962 13.934C126.046 16.1422 126.827 18.4863 127.285 20.903C127.673 23.6202 127.892 26.3587 127.942 29.103C127.986 30.286 128.008 31.803 128.008 32.503L128 95.523Z" fill="url(#paint0_linear_47_243)"/>
<path fill-rule="evenodd" clip-rule="evenodd" d="M97.6711 30.658C89.8484 22.8291 79.4469 18.1103 68.4037 17.3805C57.3604 16.6507 46.4284 19.9597 37.6435 26.6911C28.8587 33.4225 22.8199 43.1174 20.6519 53.9703C18.4839 64.8232 20.3345 76.0942 25.859 85.684L19.394 109.307L43.587 102.974C50.2748 106.618 57.7708 108.525 65.3871 108.518H65.4091C74.4325 108.524 83.2548 105.853 90.7593 100.842C98.2638 95.8317 104.113 88.7075 107.567 80.3711C111.02 72.0348 111.923 62.8612 110.161 54.0116C108.398 45.162 104.05 37.0342 97.666 30.657L97.6711 30.658ZM65.394 100.826C58.6019 100.826 51.9344 99.0023 46.088 95.545L44.7071 94.734L30.3531 98.503L34.188 84.522L33.2881 83.098C28.8106 75.9805 26.826 67.5767 27.6462 59.2081C28.4665 50.8396 32.0451 42.981 37.8192 36.8683C43.5934 30.7556 51.2356 26.7356 59.5439 25.4405C67.8523 24.1454 76.3554 25.6486 83.7162 29.7137C91.0769 33.7789 96.8777 40.1753 100.206 47.8972C103.535 55.619 104.202 64.2282 102.103 72.3708C100.005 80.5134 95.2592 87.7274 88.6129 92.8784C81.9666 98.0295 73.7967 100.825 65.3881 100.826H65.394ZM86.1941 72.426C85.0541 71.856 79.4441 69.095 78.4141 68.726C77.3621 68.354 76.614 68.156 75.85 69.296C75.086 70.436 72.914 72.996 72.234 73.767C71.577 74.534 70.8971 74.622 69.7581 74.052C66.3983 72.7161 63.2982 70.8026 60.5981 68.398C58.1042 66.1 55.9694 63.4408 54.265 60.509C53.608 59.369 54.199 58.756 54.765 58.186C55.265 57.686 55.9051 56.849 56.4741 56.192C56.9486 55.6179 57.333 54.9749 57.614 54.285C57.7647 53.9711 57.8355 53.6248 57.8202 53.277C57.8048 52.9291 57.7038 52.5904 57.5261 52.291C57.2411 51.721 54.9621 46.111 54.0201 43.832C53.1001 41.619 52.1571 41.904 51.4561 41.882C50.7991 41.838 50.032 41.838 49.265 41.838C48.6866 41.8528 48.1175 41.9869 47.5933 42.2319C47.0692 42.4769 46.6013 42.8277 46.2191 43.262C44.929 44.4825 43.908 45.9589 43.2213 47.5966C42.5345 49.2344 42.1973 50.9974 42.231 52.773C42.231 58.383 46.307 63.796 46.877 64.563C47.447 65.33 54.919 76.835 66.359 81.763C68.4823 82.6859 70.655 83.4908 72.867 84.174C75.1948 84.8834 77.6558 85.0409 80.0551 84.634C82.2461 84.305 86.805 81.873 87.747 79.221C88.689 76.569 88.6891 74.268 88.4041 73.808C88.0941 73.28 87.328 72.995 86.188 72.426H86.1941Z" fill="white"/>
</g>
<defs>
<linearGradient id="paint0_linear_47_243" x1="64.0026" y1="128.003" x2="64.0026" y2="-0.00299072" gradientUnits="userSpaceOnUse">
<stop stop-color="#25CF43"/>
<stop offset="1" stop-color="#61FD7D"/>
</linearGradient>
<clipPath id="clip0_47_243">
<rect width="128" height="128" fill="white"/>
</clipPath>
</defs>
</svg>
