<svg width="8" height="16" viewBox="0 0 8 16" fill="none" xmlns="http://www.w3.org/2000/svg">
<g clip-path="url(#clip0_21_1730)">
<path d="M3.65601 15.7999C3.66013 15.8516 3.6825 15.9001 3.71915 15.9368C3.7558 15.9734 3.80432 15.9958 3.85599 15.9999H6.702C6.75367 15.9958 6.80219 15.9734 6.83884 15.9368C6.87549 15.9001 6.8979 15.8516 6.90201 15.7999V7.95393H9.00199C9.05366 7.94981 9.10218 7.92742 9.13883 7.89077C9.17548 7.85412 9.19788 7.8056 9.202 7.75393L9.40201 5.40293C9.40447 5.37605 9.40097 5.34896 9.39179 5.32358C9.38261 5.2982 9.36797 5.27514 9.34888 5.25606C9.3298 5.23697 9.30673 5.22232 9.28135 5.21313C9.25596 5.20395 9.22888 5.20047 9.202 5.20293H6.90201V3.50293C6.89939 3.41029 6.91568 3.31809 6.94993 3.23198C6.98418 3.14587 7.03567 3.06764 7.1012 3.00211C7.16673 2.93658 7.24495 2.88512 7.33106 2.85087C7.41717 2.81662 7.50936 2.80031 7.60199 2.80293H9.202C9.25367 2.79882 9.30219 2.77642 9.33884 2.73977C9.37549 2.70312 9.3979 2.6546 9.40201 2.60293V0.202927C9.3979 0.151255 9.37549 0.102746 9.33884 0.0660934C9.30219 0.0294406 9.25367 0.00704594 9.202 0.00292969H6.50199C6.12115 0.00292969 5.74406 0.0779399 5.39222 0.223679C5.04037 0.369417 4.72068 0.583028 4.45139 0.852318C4.1821 1.12161 3.9685 1.4413 3.82276 1.79314C3.67702 2.14499 3.60199 2.5221 3.60199 2.90293V5.20293H2.202C2.15033 5.20704 2.10181 5.22944 2.06516 5.26609C2.02851 5.30274 2.0061 5.35126 2.00199 5.40293V7.75393C2.0061 7.8056 2.02851 7.85412 2.06516 7.89077C2.10181 7.92742 2.15033 7.94981 2.202 7.95393H3.65201C3.65601 7.95293 3.65601 15.7999 3.65601 15.7999Z" fill="#F9FBFC"/>
</g>
<defs>
<clipPath id="clip0_21_1730">
<rect width="7.404" height="16" fill="white"/>
</clipPath>
</defs>
</svg>
