<svg width="16" height="16" viewBox="0 0 16 16" fill="none" xmlns="http://www.w3.org/2000/svg">
<g clip-path="url(#clip0_21_1732)">
<path d="M16 7.80005C15.9972 8.82779 15.792 9.84492 15.3959 10.7933C14.9998 11.7416 14.4207 12.6026 13.6916 13.327C12.9626 14.0514 12.0979 14.625 11.147 15.0151C10.1962 15.4051 9.17774 15.6039 8.15 15.6C6.82456 15.6 5.5195 15.2738 4.35 14.65L0 16L1.4 11.8C0.660565 10.5959 0.263009 9.21307 0.25 7.80005C0.25 5.71147 1.07969 3.70843 2.55653 2.23158C4.03338 0.754734 6.03642 -0.0749512 8.125 -0.0749512C10.2136 -0.0749512 12.2166 0.754734 13.6935 2.23158C15.1703 3.70843 16 5.71147 16 7.80005ZM8.15 1.25005C6.40684 1.24553 4.73305 1.93257 3.49577 3.16048C2.25848 4.38839 1.55873 6.0569 1.55 7.80005C1.54253 9.1843 1.98081 10.5342 2.8 11.65L2 14.1L4.5 13.25C5.35137 13.8275 6.3265 14.1968 7.34678 14.3282C8.36706 14.4596 9.40394 14.3494 10.3738 14.0066C11.3437 13.6637 12.2195 13.0978 12.9305 12.3544C13.6416 11.6109 14.168 10.7109 14.4673 9.72668C14.7667 8.74249 14.8306 7.70174 14.654 6.68831C14.4773 5.67489 14.065 4.71716 13.4502 3.89232C12.8355 3.06749 12.0356 2.39863 11.1149 1.93967C10.1943 1.48071 9.17869 1.24449 8.15 1.25005ZM12.1 9.60005C12.05 9.50005 11.9 9.45005 11.75 9.40005C11.55 9.30005 10.6 8.85005 10.45 8.80005C10.25 8.75005 10.15 8.70005 10 8.90005C9.85 9.10005 9.5 9.50005 9.4 9.65005C9.3 9.80005 9.2 9.80005 9 9.70005C8.43438 9.47122 7.91061 9.1502 7.45 8.75005C7.0474 8.36198 6.69468 7.92528 6.4 7.45005C6.3 7.25005 6.4 7.15005 6.5 7.05005C6.61212 6.94434 6.71268 6.82701 6.8 6.70005C6.88353 6.61238 6.9512 6.51087 7 6.40005C7.02498 6.34509 7.0379 6.28542 7.0379 6.22505C7.0379 6.16468 7.02498 6.10501 7 6.05005C6.95 5.95005 6.55 5.00005 6.4 4.65005C6.25 4.25005 6.1 4.35005 5.95 4.35005H5.6C5.5 4.35005 5.15 4.30005 5 4.50005C4.78301 4.70434 4.61262 4.95302 4.50045 5.22914C4.38828 5.50525 4.33696 5.80231 4.35 6.10005C4.41868 6.8298 4.69646 7.52424 5.15 8.10005C5.96185 9.35226 7.10385 10.3558 8.45 11C10.4 11.75 10.4 11.5 10.75 11.5C11.0172 11.4483 11.2708 11.3416 11.4946 11.1866C11.7184 11.0317 11.9075 10.832 12.05 10.6C12.1392 10.2743 12.1563 9.93305 12.1 9.60005Z" fill="#ECEDEE"/>
</g>
<defs>
<clipPath id="clip0_21_1732">
<rect width="16" height="16" fill="white"/>
</clipPath>
</defs>
</svg>
