<svg width="17" height="12" viewBox="0 0 17 12" fill="none" xmlns="http://www.w3.org/2000/svg">
<path d="M15.9643 1.75651C15.8709 1.41891 15.6893 1.11115 15.4373 0.8638C15.1853 0.616449 14.8718 0.438116 14.5278 0.346514C12.4122 0.0924752 10.2817 -0.0221148 8.15045 0.00351381C6.01964 -0.0211491 3.88943 0.0890796 1.77307 0.333514C1.4294 0.429838 1.11675 0.611331 0.865189 0.860541C0.613625 1.10975 0.431607 1.4183 0.336635 1.75651C0.105108 3.02608 -0.00742501 4.31379 0.000447329 5.60351C-0.00804848 6.89425 0.104489 8.18302 0.336635 9.45351C0.429954 9.79111 0.611631 10.0989 0.86362 10.3462C1.11561 10.5936 1.42914 10.7719 1.77307 10.8635C3.88877 11.1162 6.01931 11.2298 8.15045 11.2035C10.2813 11.2282 12.4115 11.1179 14.5278 10.8735C14.872 10.7824 15.1858 10.6042 15.4378 10.3568C15.6899 10.1093 15.8714 9.80134 15.9643 9.46351C16.1956 8.19426 16.3081 6.9069 16.3004 5.61751C16.3157 4.32288 16.2031 3.02983 15.9643 1.75651ZM6.52554 8.00351V3.20351L10.7686 5.60351L6.52554 8.00351Z" fill="#F9FBFC"/>
</svg>
